<svg width="125" height="39" viewBox="0 0 125 39" fill="none" xmlns="http://www.w3.org/2000/svg">
<path d="M1.02478 3.37009H0.52478V3.87009V36.4985V36.9985H1.02478H2.44445H2.94445V36.4985V24.5562H24.0569V36.4985V36.9985H24.5569H25.9766H26.4766V36.4985V3.87009V3.37009H25.9766H24.5569H24.0569V3.87009V22.2945H2.94445V3.87009V3.37009H2.44445H1.02478ZM32.7859 3.37009H32.2859V3.87009V36.4985V36.9985H32.7859H44.3584H44.8584V36.4985V35.2368V34.7368H44.3584H34.7056V24.6432H42.6806H43.1806V24.1432V22.8815V22.3815H42.6806H34.7056V5.63172H44.3584H44.8584V5.13172V3.87009V3.37009H44.3584H32.7859ZM48.8766 3.37009H48.3766V3.87009V36.4985V36.9985H48.8766H60.277H60.777V36.4985V35.2368V34.7368H60.277H50.7963V3.87009V3.37009H50.2963H48.8766ZM70.3259 6.90451L70.3273 6.9036C72.5975 5.47575 75.1005 4.76163 77.8478 4.76163C79.6775 4.76163 81.1653 4.97569 82.3277 5.38572L82.3276 5.3859L82.3409 5.39017C83.5429 5.77693 84.8608 6.46072 86.2959 7.45669L87.0809 8.00153V7.04592V5.43625V5.14837L86.832 5.00384C85.2653 4.09435 83.867 3.45116 82.6412 3.08769C81.3956 2.68926 79.7471 2.5 77.7188 2.5C74.7305 2.5 71.9048 3.27915 69.2496 4.83052L69.2475 4.83176C66.6208 6.38371 64.5105 8.50397 62.9199 11.1847L62.9179 11.1883C61.3512 13.8785 60.5698 16.8518 60.5698 20.0973C60.5698 23.4519 61.3193 26.4948 62.8266 29.2145L62.8265 29.2146L62.8298 29.2202C64.3628 31.9034 66.4309 34.0257 69.0303 35.579L69.0339 35.5812C71.6368 37.1066 74.4921 37.8685 77.5897 37.8685C79.3474 37.8685 80.9695 37.6614 82.4525 37.2422C83.9642 36.8519 85.4274 36.223 86.8416 35.359L87.0809 35.2127V34.9323V33.3226V32.5095L86.9949 32.553V22.7945V22.2945H86.4949H74.4062H73.9062V22.7945V24.0562V24.5562H74.4062H84.5752V33.9857C83.5738 34.5285 82.5267 34.928 81.4331 35.1851L81.4305 35.1858C80.2724 35.4646 78.9363 35.6069 77.4176 35.6069C74.8755 35.6069 72.5009 34.9241 70.2846 33.5521C68.0918 32.148 66.3274 30.2667 64.9898 27.8996C63.6563 25.5396 62.9895 22.9853 62.9895 20.2278C62.9895 17.4987 63.6422 14.9577 64.9484 12.5966C66.2852 10.2029 68.0768 8.30844 70.3259 6.90451ZM122.601 36.9985H123.398L123.052 36.281L106.919 2.8696L106.468 1.93585L106.018 2.87007L89.9287 36.2815L89.5834 36.9985H90.3792H91.8849H92.1993L92.3355 36.715L98.1792 24.5562H114.675L120.647 36.7188L120.784 36.9985H121.096H122.601ZM99.2599 22.2945L106.388 7.36943L113.67 22.2945H99.2599Z" fill="#D8EFFE" stroke="#D8EFFE"/>
</svg>
