<svg width="124" height="10" viewBox="0 0 124 10" fill="none" xmlns="http://www.w3.org/2000/svg">
<path d="M9.2779 9.89567H8.21017L5.01732 6.7609V9.89567H4.26058V6.75042L1.06774 9.89567H0L3.65933 6.38347L0.279892 2.5253H1.2647L4.26058 6.04798V2.5253H5.01732V6.02701L8.0132 2.5253H8.98764L5.60821 6.38347L9.2779 9.89567Z" fill="white"/>
<path d="M16.057 2.45192H16.3162V9.89567H15.5594V4.13986L10.4799 9.96906H10.2311V2.5253H10.9879V8.28111L16.057 2.45192Z" fill="white"/>
<path d="M23.2208 2.5253V3.23823H20.7329V9.89567H19.9762V3.23823H17.4882V2.5253H23.2208Z" fill="white"/>
<path d="M29.6764 2.5253V9.89567H28.9197V3.23823H25.6128L25.4677 6.92865C25.4262 8.04696 25.2603 8.84026 24.9701 9.30855C24.6798 9.76986 24.2583 10.0005 23.7054 10.0005C23.4289 10.0005 23.194 9.94809 23.0005 9.84325L23.1871 9.15129C23.3184 9.24216 23.4877 9.28759 23.695 9.28759C23.9023 9.28759 24.0682 9.23516 24.1926 9.13032C24.3239 9.02548 24.4379 8.79483 24.5347 8.43837C24.6314 8.07492 24.6936 7.56469 24.7213 6.90768L24.9079 2.5253H29.6764Z" fill="white"/>
<path d="M37.7448 8.91016C37.0329 9.63007 36.1276 9.99002 35.0288 9.99002C33.9299 9.99002 33.0246 9.63007 32.3128 8.91016C31.601 8.19024 31.245 7.2956 31.245 6.22621C31.245 5.14984 31.601 4.2482 32.3128 3.5213C33.0315 2.7944 33.9368 2.43095 35.0288 2.43095C36.1207 2.43095 37.0226 2.7944 37.7344 3.5213C38.4531 4.2482 38.8125 5.14984 38.8125 6.22621C38.8125 7.2956 38.4566 8.19024 37.7448 8.91016ZM32.8622 8.4174C33.4358 8.99054 34.158 9.2771 35.0288 9.2771C35.8995 9.2771 36.6183 8.99054 37.185 8.4174C37.7586 7.84427 38.0454 7.11737 38.0454 6.2367C38.0454 5.34904 37.7551 4.61165 37.1746 4.02454C36.601 3.43743 35.8857 3.14387 35.0288 3.14387C34.1718 3.14387 33.4531 3.43743 32.8726 4.02454C32.299 4.61165 32.0122 5.34904 32.0122 6.2367C32.0122 7.11737 32.2955 7.84427 32.8622 8.4174Z" fill="white"/>
<path d="M44.09 6.18428C44.5116 6.31009 44.8433 6.52676 45.0852 6.83429C45.3271 7.14183 45.448 7.51227 45.448 7.94561C45.448 8.55369 45.22 9.03247 44.7638 9.38194C44.3146 9.72443 43.6892 9.89567 42.8875 9.89567H40.3685V2.5253H42.8875C43.6063 2.5253 44.1764 2.69655 44.598 3.03903C45.0196 3.38151 45.2303 3.8498 45.2303 4.44391C45.2303 4.86327 45.1301 5.22672 44.9297 5.53426C44.7293 5.8348 44.4494 6.05148 44.09 6.18428ZM44.4632 4.55923C44.4632 4.13288 44.3146 3.80437 44.0175 3.57372C43.7272 3.33608 43.3091 3.21726 42.7631 3.21726H41.1149V5.85927H43.126C43.5337 5.85927 43.8585 5.74394 44.1004 5.51329C44.3423 5.27565 44.4632 4.95763 44.4632 4.55923ZM42.9601 9.20371C43.4853 9.20371 43.9034 9.08489 44.2144 8.84725C44.5254 8.60262 44.6809 8.28111 44.6809 7.88271C44.6809 7.47033 44.5427 7.14183 44.2663 6.8972C43.9898 6.65257 43.6097 6.53025 43.126 6.53025H41.1149V9.20371H42.9601Z" fill="white"/>
<path d="M52.9973 2.45192H53.2565V9.89567H52.4997V4.13986L47.4202 9.96906H47.1714V2.5253H47.9282V8.28111L52.9973 2.45192Z" fill="white"/>
<path d="M59.4251 1.50834C59.1902 1.72501 58.8723 1.83335 58.4714 1.83335C58.0706 1.83335 57.7527 1.72501 57.5177 1.50834C57.2827 1.28468 57.1653 0.987628 57.1653 0.617188H57.7769C57.7769 0.812892 57.8391 0.973649 57.9635 1.09946C58.0948 1.21828 58.2641 1.27769 58.4714 1.27769C58.6857 1.27769 58.855 1.21828 58.9794 1.09946C59.1107 0.973649 59.1763 0.812892 59.1763 0.617188H59.788C59.788 0.987628 59.667 1.28468 59.4251 1.50834ZM61.177 2.45192H61.4362V9.89567H60.6795V4.13986L55.5999 9.96906H55.3512V2.5253H56.1079V8.28111L61.177 2.45192Z" fill="white"/>
<path d="M71.6058 9.89567H70.5173L66.8994 6.75042V9.89567H66.1427V2.5253H66.8994V6.04798L70.2789 2.5253H71.2741L67.5007 6.37299L71.6058 9.89567Z" fill="white"/>
<path d="M78.0056 8.91016C77.2937 9.63007 76.3884 9.99002 75.2896 9.99002C74.1907 9.99002 73.2854 9.63007 72.5736 8.91016C71.8617 8.19024 71.5058 7.2956 71.5058 6.22621C71.5058 5.14984 71.8617 4.2482 72.5736 3.5213C73.2923 2.7944 74.1976 2.43095 75.2896 2.43095C76.3815 2.43095 77.2834 2.7944 77.9952 3.5213C78.7139 4.2482 79.0733 5.14984 79.0733 6.22621C79.0733 7.2956 78.7174 8.19024 78.0056 8.91016ZM73.123 8.4174C73.6966 8.99054 74.4188 9.2771 75.2896 9.2771C76.1603 9.2771 76.8791 8.99054 77.4458 8.4174C78.0194 7.84427 78.3062 7.11737 78.3062 6.2367C78.3062 5.34904 78.0159 4.61165 77.4354 4.02454C76.8618 3.43743 76.1465 3.14387 75.2896 3.14387C74.4326 3.14387 73.7139 3.43743 73.1334 4.02454C72.5598 4.61165 72.2729 5.34904 72.2729 6.2367C72.2729 7.11737 72.5563 7.84427 73.123 8.4174Z" fill="white"/>
<path d="M87.9376 9.89567H87.1808L86.9735 4.90521L84.3819 9.94809H84.1228L81.5312 4.90521L81.3238 9.89567H80.5671L80.8677 2.5253H81.1269L84.2575 8.60612L87.3778 2.5253H87.637L87.9376 9.89567Z" fill="white"/>
<path d="M95.9442 2.5253V9.89567H95.1875V3.23823H90.7299V9.89567H89.9732V2.5253H95.9442Z" fill="white"/>
<path d="M104.013 2.5253V9.89567H103.256V3.23823H99.949L99.8038 6.92865C99.7624 8.04696 99.5965 8.84026 99.3063 9.30855C99.016 9.76986 98.5944 10.0005 98.0416 10.0005C97.7651 10.0005 97.5302 9.94809 97.3366 9.84325L97.5232 9.15129C97.6545 9.24216 97.8239 9.28759 98.0312 9.28759C98.2385 9.28759 98.4044 9.23516 98.5288 9.13032C98.6601 9.02548 98.7741 8.79483 98.8709 8.43837C98.9676 8.07492 99.0298 7.56469 99.0575 6.90768L99.2441 2.5253H104.013Z" fill="white"/>
<path d="M110.816 3.23823H106.867V6.1004H110.319V6.81332H106.867V9.18274H110.816V9.89567H106.11V2.5253H110.816V3.23823Z" fill="white"/>
<path d="M117.87 9.89567H116.781L113.163 6.75042V9.89567H112.407V2.5253H113.163V6.04798L116.543 2.5253H117.538L113.765 6.37299L117.87 9.89567Z" fill="white"/>
<path d="M121.688 10.0005C120.569 10.0005 119.636 9.64754 118.889 8.94161C118.143 8.22869 117.77 7.32006 117.77 6.21573C117.77 5.1114 118.143 4.20626 118.889 3.50033C119.636 2.78741 120.569 2.43095 121.688 2.43095C122.628 2.43095 123.399 2.67558 124 3.16484L123.616 3.80437C123.07 3.36404 122.41 3.14387 121.636 3.14387C120.78 3.14387 120.047 3.43393 119.439 4.01405C118.838 4.58719 118.537 5.32108 118.537 6.21573C118.537 7.11038 118.838 7.84776 119.439 8.42789C120.047 9.00102 120.78 9.28759 121.636 9.28759C122.41 9.28759 123.07 9.06742 123.616 8.62708L124 9.26662C123.399 9.75588 122.628 10.0005 121.688 10.0005Z" fill="white"/>
</svg>
