<svg width="14" height="14" viewBox="0 0 14 14" fill="none" xmlns="http://www.w3.org/2000/svg">
<path d="M7.88995 9.55508L9.55503 8.46417L12.4258 9.6125V11.9091L11.3349 13.0001C8.68016 12.7455 6.19676 11.5749 4.31095 9.6891C2.42514 7.80329 1 4 1 1.57422H4.38756L5.53588 4.44503L4.44498 6.1101C5.25534 7.55286 6.4472 8.74472 7.88995 9.55508Z" stroke="#DAF0FF" stroke-width="0.8" stroke-miterlimit="10"/>
<path d="M12.9999 6.74163C12.9999 5.98763 12.8514 5.24101 12.5629 4.5444C12.2743 3.84779 11.8514 3.21484 11.3182 2.68168C10.7851 2.14852 10.1521 1.7256 9.45553 1.43706C8.75892 1.14851 8.0123 1 7.2583 1" stroke="#DAF0FF" stroke-width="0.8"/>
<path d="M10.7033 6.74185C10.7033 5.82819 10.3403 4.95194 9.69427 4.30589C9.04821 3.65983 8.17197 3.29688 7.2583 3.29688" stroke="#DAF0FF" stroke-width="0.8"/>
</svg>
